<svg width="16" height="16" viewBox="0 0 16 16" fill="none" xmlns="http://www.w3.org/2000/svg">
<path d="M5.026 15c6.038 0 9.341-5.003 9.341-9.334 0-.14 0-.282-.006-.422A6.685 6.685 0 0 0 16 3.542a6.658 6.658 0 0 1-1.889.518 3.301 3.301 0 0 0 1.447-1.817 6.533 6.533 0 0 1-2.087.793A3.286 3.286 0 0 0 7.875 6.03a9.325 9.325 0 0 1-6.767-3.429 3.289 3.289 0 0 0 1.018 4.382A3.323 3.323 0 0 1 .64 6.575v.045a3.288 3.288 0 0 0 2.632 3.218 3.203 3.203 0 0 1-.865.115 3.23 3.23 0 0 1-.614-.057 3.283 3.283 0 0 0 3.067 2.277A6.588 6.588 0 0 1 .78 13.58a6.32 6.32 0 0 1-.78-.045A9.344 9.344 0 0 0 5.026 15z" fill="white"/>
<!-- <path d="M11.2986 0.0502569C9.82665 -0.0184086 6.18071 -0.0150753 4.7074 0.0502569C3.41276 0.110922 2.27078 0.423584 1.35013 1.34423C-0.188512 2.88287 0.00815137 4.95617 0.00815137 7.99678C0.00815137 11.1087 -0.165179 13.134 1.35013 14.6493C2.89477 16.1933 4.99806 15.9913 8.00268 15.9913C11.0853 15.9913 12.1493 15.9933 13.2393 15.5713C14.7212 14.996 15.8399 13.6714 15.9492 11.2921C16.0185 9.81942 16.0145 6.17415 15.9492 4.70084C15.8172 1.89222 14.3099 0.188921 11.2986 0.0502569V0.0502569ZM13.6286 13.6314C12.6199 14.64 11.2206 14.55 7.98335 14.55C4.65007 14.55 3.31343 14.5993 2.33811 13.6214C1.2148 12.5034 1.41813 10.7081 1.41813 7.98612C1.41813 4.30285 1.04013 1.65023 4.73674 1.4609C5.58605 1.4309 5.83605 1.4209 7.97401 1.4209L8.00401 1.4409C11.5566 1.4409 14.3439 1.06891 14.5112 4.76484C14.5492 5.60816 14.5579 5.86149 14.5579 7.99612C14.5572 11.2907 14.6199 12.6354 13.6286 13.6314V13.6314Z" fill="white"/>
<path d="M12.2706 4.6889C12.8004 4.6889 13.2299 4.2594 13.2299 3.72958C13.2299 3.19976 12.8004 2.77026 12.2706 2.77026C11.7408 2.77026 11.3113 3.19976 11.3113 3.72958C11.3113 4.2594 11.7408 4.6889 12.2706 4.6889Z" fill="white"/> -->
</svg>
